# xmcd
#
# Track frame offsets: 
#        187
#        13322
#        25935
#        40795
#        56457
#        96562
#        132032
#        148930
#        182452
#        206977
#        224465
#        247262
#        270757
#        286670
#
# Disc length: 4031 seconds
#
# Revision: 2
# Processed by: cddbd v1.4PL0 Copyright (c) Steve Scherf et al.
# Submitted via: ExactAudioCopy v0.90b4
#
DISCID=d30fbd0e
DTITLE=Curtis Mayfield and The Impressions - The Anthology 1961-1977 [CD
DTITLE=2)
DYEAR=1900
DGENRE=R&B
TTITLE0=Fool For You
TTITLE1=This Is My Country
TTITLE2=Choice Of Colors
TTITLE3=Check Out Your Mind
TTITLE4=Move On Up
TTITLE5=(Don't Worry) If There's A Hell Below, We're All Going To Go
TTITLE6=The Makings Of You
TTITLE7=Beautiful Brother Of Mine
TTITLE8=Freddie's Dead
TTITLE9=Superfly
TTITLE10=Pusherman
TTITLE11=So In Love
TTITLE12=Only You Babe (single edit)
TTITLE13=Do Do Wap Is Strong In Here (single edit)
EXTD=
EXTT0=
EXTT1=
EXTT2=
EXTT3=
EXTT4=
EXTT5=
EXTT6=
EXTT7=
EXTT8=
EXTT9=
EXTT10=
EXTT11=
EXTT12=
EXTT13=
PLAYORDER=
